# Blender v2.80 (sub 75) OBJ File: 'LowPoly.blend'
# www.blender.org
mtllib person.mtl
o Cube
v 1.000000 1.000000 -1.000000
v 0.600000 -1.000000 -0.600000
v 1.000000 1.000000 1.000000
v 0.600000 -1.000000 0.600000
v -1.000000 1.000000 -1.000000
v -0.600000 -1.000000 -0.600000
v -1.000000 1.000000 1.000000
v -0.600000 -1.000000 0.600000
v 0.600000 2.000000 0.600000
v -0.600000 2.000000 0.600000
v 0.600000 2.000000 -0.600000
v -0.600000 2.000000 -0.600000
v 0.720000 2.538917 0.720000
v -0.720000 2.538917 0.720000
v 0.720000 2.538917 -0.720000
v -0.720000 2.538917 -0.720000
v 0.504000 3.633080 0.504000
v -0.504000 3.633080 0.504000
v 0.504000 3.633080 -0.504000
v -0.504000 3.633080 -0.504000
v -0.693515 -1.000000 0.000000
v 1.155858 1.000000 0.000000
v -1.155858 1.000000 0.000000
v 0.693515 -1.000000 0.000000
v 0.693515 2.000000 0.000000
v -0.693515 2.000000 0.000000
v 0.832218 2.538917 0.000000
v -0.832218 2.538917 0.000000
v 0.582552 3.633080 0.000000
v -0.582552 3.633080 0.000000
v 0.000000 -1.000000 -0.675882
v 0.000000 1.000000 1.126470
v 0.000000 -1.000000 0.675882
v 0.000000 1.000000 -1.126470
v 0.000000 2.000000 0.675882
v 0.000000 2.000000 -0.675882
v 0.000000 2.538917 0.811059
v 0.000000 2.538917 -0.811059
v 0.000000 3.633080 0.567741
v 0.000000 3.633080 -0.567741
v 0.000000 3.633080 0.000000
v 0.000000 -1.000000 0.000000
v -0.693515 -1.000000 0.000000
v -0.693515 -1.000000 0.000000
v -0.693515 -1.000000 0.000000
v -0.600000 -1.000000 0.600000
v -0.600000 -1.000000 0.600000
v 0.000000 -1.000000 -0.675882
v 0.000000 -1.000000 -0.675882
v 0.000000 -1.000000 -0.675882
v -0.600000 -1.000000 -0.600000
v -0.600000 -1.000000 -0.600000
v 1.000000 1.000000 -1.000000
v 1.000000 1.000000 -1.000000
v 1.000000 1.000000 -1.000000
v 0.600000 -1.000000 -0.600000
v 0.600000 -1.000000 -0.600000
v -1.000000 1.000000 1.000000
v -1.000000 1.000000 1.000000
v -1.000000 1.000000 1.000000
v 1.000000 1.000000 1.000000
v 1.000000 1.000000 1.000000
v 1.000000 1.000000 1.000000
v 0.600000 -1.000000 0.600000
v 0.600000 -1.000000 0.600000
v -1.000000 1.000000 -1.000000
v -1.000000 1.000000 -1.000000
v -1.000000 1.000000 -1.000000
v 0.000000 1.000000 1.126470
v 0.000000 1.000000 1.126470
v 0.000000 1.000000 1.126470
v 1.155858 1.000000 0.000000
v 1.155858 1.000000 0.000000
v 1.155858 1.000000 0.000000
v 0.000000 -1.000000 0.675882
v 0.000000 -1.000000 0.675882
v 0.000000 -1.000000 0.675882
v -1.155858 1.000000 0.000000
v -1.155858 1.000000 0.000000
v -1.155858 1.000000 0.000000
v 0.000000 1.000000 -1.126470
v 0.000000 1.000000 -1.126470
v 0.000000 1.000000 -1.126470
v 0.693515 -1.000000 0.000000
v 0.693515 -1.000000 0.000000
v 0.693515 -1.000000 0.000000
v 0.000000 2.000000 0.675882
v 0.000000 2.000000 0.675882
v 0.000000 2.000000 0.675882
v -0.600000 2.000000 0.600000
v -0.600000 2.000000 0.600000
v -0.600000 2.000000 0.600000
v 0.693515 2.000000 0.000000
v 0.693515 2.000000 0.000000
v 0.693515 2.000000 0.000000
v 0.600000 2.000000 0.600000
v 0.600000 2.000000 0.600000
v 0.600000 2.000000 0.600000
v -0.693515 2.000000 0.000000
v -0.693515 2.000000 0.000000
v -0.693515 2.000000 0.000000
v -0.600000 2.000000 -0.600000
v -0.600000 2.000000 -0.600000
v -0.600000 2.000000 -0.600000
v 0.000000 2.000000 -0.675882
v 0.000000 2.000000 -0.675882
v 0.000000 2.000000 -0.675882
v 0.600000 2.000000 -0.600000
v 0.600000 2.000000 -0.600000
v 0.600000 2.000000 -0.600000
v 0.000000 2.538917 0.811059
v 0.000000 2.538917 0.811059
v 0.000000 2.538917 0.811059
v -0.720000 2.538917 0.720000
v -0.720000 2.538917 0.720000
v -0.720000 2.538917 0.720000
v 0.832218 2.538917 0.000000
v 0.832218 2.538917 0.000000
v 0.832218 2.538917 0.000000
v 0.720000 2.538917 0.720000
v 0.720000 2.538917 0.720000
v 0.720000 2.538917 0.720000
v -0.832218 2.538917 0.000000
v -0.832218 2.538917 0.000000
v -0.832218 2.538917 0.000000
v -0.720000 2.538917 -0.720000
v -0.720000 2.538917 -0.720000
v -0.720000 2.538917 -0.720000
v 0.000000 2.538917 -0.811059
v 0.000000 2.538917 -0.811059
v 0.000000 2.538917 -0.811059
v 0.720000 2.538917 -0.720000
v 0.720000 2.538917 -0.720000
v 0.720000 2.538917 -0.720000
v 0.000000 3.633080 0.567741
v 0.000000 3.633080 0.567741
v 0.000000 3.633080 0.567741
v -0.504000 3.633080 0.504000
v -0.504000 3.633080 0.504000
v 0.582552 3.633080 0.000000
v 0.582552 3.633080 0.000000
v 0.582552 3.633080 0.000000
v 0.504000 3.633080 0.504000
v 0.504000 3.633080 0.504000
v -0.582552 3.633080 0.000000
v -0.582552 3.633080 0.000000
v -0.582552 3.633080 0.000000
v -0.504000 3.633080 -0.504000
v -0.504000 3.633080 -0.504000
v 0.000000 3.633080 -0.567741
v 0.000000 3.633080 -0.567741
v 0.000000 3.633080 -0.567741
v 0.504000 3.633080 -0.504000
v 0.504000 3.633080 -0.504000
v 0.000000 3.633080 0.000000
v 0.000000 3.633080 0.000000
v 0.000000 3.633080 0.000000
v 0.000000 -1.000000 0.000000
v 0.000000 -1.000000 0.000000
v 0.000000 -1.000000 0.000000
vt 0.125000 0.328956
vt 0.200000 0.499183
vt 0.125000 0.498500
vt 0.625000 0.329120
vt 0.550000 0.000543
vt 0.625000 0.000000
vt 0.875000 0.428120
vt 0.950000 0.767497
vt 0.875000 0.766159
vt 0.333818 0.885561
vt 0.417635 0.799075
vt 0.417635 0.899666
vt 0.125000 0.328956
vt 0.050000 0.000683
vt 0.125000 0.000000
vt 0.375000 0.329120
vt 0.300000 0.000543
vt 0.375000 0.000000
vt 0.800000 0.270368
vt 0.875000 0.177740
vt 0.875000 0.269029
vt 0.375000 0.329120
vt 0.450000 0.499062
vt 0.375000 0.498519
vt 0.625000 0.329120
vt 0.700000 0.499062
vt 0.625000 0.498519
vt 0.875000 0.428120
vt 0.800000 0.270368
vt 0.875000 0.269029
vt 0.375000 0.587104
vt 0.438000 0.771123
vt 0.375000 0.770666
vt 0.700000 0.499062
vt 0.625000 0.587104
vt 0.625000 0.498519
vt 0.450000 0.499062
vt 0.375000 0.587104
vt 0.375000 0.498519
vt 0.200000 0.499183
vt 0.125000 0.587036
vt 0.125000 0.498500
vt 0.488042 0.867251
vt 0.433445 0.960936
vt 0.417635 0.879099
vt 0.125000 0.587036
vt 0.188000 0.771247
vt 0.125000 0.770673
vt 0.875000 0.177740
vt 0.812000 0.001124
vt 0.875000 0.000000
vt 0.625000 0.587104
vt 0.688000 0.771123
vt 0.625000 0.770666
vt 0.875000 0.177740
vt 0.938000 0.001124
vt 0.965000 0.179346
vt 0.125000 0.587036
vt 0.062000 0.771247
vt 0.035000 0.587856
vt 0.558449 0.939900
vt 0.488042 0.867251
vt 0.558449 0.855403
vt 0.050000 0.499183
vt 0.125000 0.587036
vt 0.035000 0.587856
vt 0.875000 0.428120
vt 0.950000 0.270368
vt 1.000000 0.430351
vt 0.950000 0.270368
vt 0.875000 0.177740
vt 0.965000 0.179346
vt 0.200000 0.000683
vt 0.125000 0.328956
vt 0.125000 0.000000
vt 0.268821 0.774032
vt 0.333818 0.885561
vt 0.250000 0.871456
vt 0.800000 0.767497
vt 0.875000 0.428120
vt 0.875000 0.766159
vt 0.125000 0.328956
vt 0.050000 0.499183
vt 0.000000 0.330094
vt 0.250000 0.972047
vt 0.333818 0.885561
vt 0.322941 1.000000
vt 0.542640 0.773567
vt 0.488042 0.867251
vt 0.478905 0.771123
vt 0.625000 0.587104
vt 0.562000 0.771123
vt 0.535000 0.587756
vt 0.488042 0.867251
vt 0.417635 0.794603
vt 0.478905 0.771123
vt 0.300000 0.499062
vt 0.375000 0.587104
vt 0.285000 0.587756
vt 0.550000 0.499062
vt 0.625000 0.587104
vt 0.535000 0.587756
vt 0.375000 0.587104
vt 0.312000 0.771123
vt 0.285000 0.587756
vt 0.625000 0.329120
vt 0.550000 0.499062
vt 0.500000 0.330026
vt 0.375000 0.329120
vt 0.300000 0.499062
vt 0.250000 0.330026
vt 0.450000 0.000543
vt 0.375000 0.329120
vt 0.375000 0.000000
vt 0.333818 0.885561
vt 0.398815 0.997090
vt 0.322941 1.000000
vt 0.700000 0.000543
vt 0.625000 0.329120
vt 0.625000 0.000000
vt 0.250000 0.330094
vt 0.500000 0.330026
vt 1.000000 0.430351
vt 0.344695 0.771123
vt 0.000000 0.330094
vt 0.250000 0.330026
vt 0.785000 0.179346
vt 0.500000 0.330026
vt 0.750000 0.330026
vt 0.750000 0.430352
vt 0.465000 0.587756
vt 0.715000 0.587756
vt 0.465000 0.587756
vt 0.215000 0.587856
vt 0.497179 0.963380
vt 0.215000 0.587856
vt 0.785000 0.179346
vt 0.715000 0.587756
vt 0.875000 0.000000
vt 0.125000 0.770673
vt 0.497179 0.963380
vt 0.125000 0.498500
vt 0.875000 0.269029
vt 0.875000 0.269029
vt 0.250000 0.330094
vt 0.344695 0.771123
vt 0.750000 0.430352
vt 0.125000 0.498500
vt 0.250000 0.871456
vt 0.558449 0.855403
vt 0.625000 0.770666
vt 0.417635 0.879099
vt 0.375000 0.498519
vt 0.625000 0.498519
vt 0.375000 0.770666
vt 0.625000 0.498519
vt 0.375000 0.498519
vt 0.500000 0.330026
vt 0.417635 0.899666
vt 0.750000 0.330026
vn 0.8987 0.4155 -0.1401
vn -0.1224 -0.2181 0.9682
vn -0.9633 -0.2227 -0.1501
vn 0.0000 -1.0000 0.0000
vn 0.9633 -0.2227 0.1501
vn 0.1224 -0.2181 -0.9682
vn -0.9576 -0.2465 0.1492
vn -0.1145 0.4081 -0.9057
vn 0.1145 0.4081 0.9057
vn -0.8987 0.4155 0.1401
vn -0.1225 0.2154 -0.9688
vn 0.1218 -0.2415 0.9627
vn -0.1218 -0.2415 -0.9627
vn 0.9576 -0.2465 -0.1492
vn 0.0000 1.0000 0.0000
vn 0.9639 0.2199 -0.1502
vn -0.9639 0.2199 0.1502
vn 0.1225 0.2154 0.9688
vn -0.9639 0.2199 -0.1502
vn 0.9639 0.2199 0.1502
vn 0.9576 -0.2465 0.1492
vn -0.8987 0.4155 -0.1401
vn -0.9576 -0.2465 -0.1492
vn 0.9633 -0.2227 -0.1501
vn -0.9633 -0.2227 0.1501
vn 0.8987 0.4155 0.1401
vn -0.1225 0.2154 0.9688
vn 0.1218 -0.2415 -0.9627
vn -0.1218 -0.2415 0.9627
vn 0.1225 0.2154 -0.9688
vn -0.1145 0.4081 0.9057
vn 0.1145 0.4081 -0.9057
vn -0.1224 -0.2181 -0.9682
vn 0.1224 -0.2181 0.9682
usemtl Material
s off
f 73/1/1 109/2/1 94/3/1
f 69/4/2 47/5/2 76/6/2
f 78/7/3 52/8/3 44/9/3
f 159/10/4 65/11/4 75/12/4
f 72/13/5 64/14/5 86/15/5
f 81/16/6 56/17/6 49/18/6
f 92/19/7 124/20/7 100/21/7
f 82/22/8 103/23/8 106/24/8
f 70/25/9 97/26/9 88/27/9
f 79/28/10 91/29/10 101/30/10
f 130/31/11 149/32/11 151/33/11
f 98/34/12 112/35/12 89/36/12
f 104/37/13 131/38/13 107/39/13
f 110/40/14 118/41/14 95/42/14
f 156/43/15 138/44/15 135/45/15
f 119/46/16 154/47/16 141/48/16
f 125/49/17 139/50/17 147/51/17
f 113/52/18 144/53/18 136/54/18
f 123/55/19 148/56/19 126/57/19
f 117/58/20 143/59/20 120/60/20
f 20/61/15 157/62/15 152/63/15
f 96/64/21 27/65/21 13/66/21
f 23/67/22 102/68/22 5/69/22
f 12/70/23 28/71/23 16/72/23
f 57/73/24 74/74/24 84/75/24
f 2/76/4 160/77/4 50/78/4
f 46/79/25 80/80/25 43/81/25
f 22/82/26 9/83/26 3/84/26
f 51/85/4 158/86/4 45/87/4
f 153/88/15 155/89/15 142/90/15
f 111/91/27 18/92/27 114/93/27
f 41/94/15 17/95/15 29/96/15
f 108/97/28 129/98/28 132/99/28
f 90/100/29 37/101/29 14/102/29
f 38/103/30 19/104/30 15/105/30
f 71/106/31 10/107/31 7/108/31
f 34/109/32 11/110/32 1/111/32
f 6/112/33 83/113/33 31/114/33
f 42/115/4 8/116/4 21/117/4
f 4/118/34 32/119/34 33/120/34
f 73/1/1 54/121/1 109/2/1
f 69/4/2 58/122/2 47/5/2
f 78/7/3 66/123/3 52/8/3
f 159/10/4 85/124/4 65/11/4
f 72/13/5 61/125/5 64/14/5
f 81/16/6 53/126/6 56/17/6
f 92/19/7 115/127/7 124/20/7
f 82/22/8 67/128/8 103/23/8
f 70/25/9 62/129/9 97/26/9
f 79/28/10 59/130/10 91/29/10
f 130/31/11 128/131/11 149/32/11
f 98/34/12 121/132/12 112/35/12
f 104/37/13 127/133/13 131/38/13
f 110/40/14 133/134/14 118/41/14
f 156/43/15 146/135/15 138/44/15
f 119/46/16 134/136/16 154/47/16
f 125/49/17 116/137/17 139/50/17
f 113/52/18 122/138/18 144/53/18
f 123/55/19 145/139/19 148/56/19
f 117/58/20 140/140/20 143/59/20
f 20/61/15 30/141/15 157/62/15
f 96/64/21 93/142/21 27/65/21
f 23/67/22 99/143/22 102/68/22
f 12/70/23 26/144/23 28/71/23
f 57/73/24 55/145/24 74/74/24
f 2/76/4 24/146/4 160/77/4
f 46/79/25 60/147/25 80/80/25
f 22/82/26 25/148/26 9/83/26
f 51/85/4 48/149/4 158/86/4
f 153/88/15 150/150/15 155/89/15
f 111/91/27 137/151/27 18/92/27
f 41/94/15 39/152/15 17/95/15
f 108/97/28 105/153/28 129/98/28
f 90/100/29 87/154/29 37/101/29
f 38/103/30 40/155/30 19/104/30
f 71/106/31 35/156/31 10/107/31
f 34/109/32 36/157/32 11/110/32
f 6/112/33 68/158/33 83/113/33
f 42/115/4 77/159/4 8/116/4
f 4/118/34 63/160/34 32/119/34
