# Blender v2.80 (sub 75) OBJ File: 'rock.blend'
# www.blender.org
mtllib rock.mtl
o Rock_Icosphere
v -0.000000 -1.232207 0.268162
v 0.858629 0.057321 0.743890
v -0.341366 0.215728 1.273060
v -1.030932 -0.841945 0.093384
v -0.620817 -1.278326 -2.140241
v 0.911900 -1.075996 -1.464348
v 0.321966 0.972263 1.377924
v -0.878029 0.972263 0.825554
v -1.306282 0.237350 -1.857500
v 0.226436 0.817423 -2.320469
v 1.164019 0.962462 -0.954142
v -0.206891 2.100283 -0.541582
v -0.194947 -0.816761 1.031057
v 0.510387 -0.909869 0.720022
v 0.315443 -0.292585 1.422505
v 1.020777 -0.686994 0.104952
v 0.510387 -1.211169 -0.286487
v -0.630876 -1.060516 0.216766
v -0.783448 -0.688452 0.934698
v -0.194947 -1.304278 -0.597523
v -0.783448 -1.175971 -0.693887
v 0.315443 -1.081407 -1.212600
v 1.250820 0.498217 -0.114773
v 1.260520 -0.284377 -1.210127
v -0.009700 0.802662 1.362389
v 0.695643 0.709554 1.051354
v -1.622221 0.252999 -0.099320
v -0.715043 0.709554 1.051354
v -1.055725 -0.840945 -2.234761
v -1.612521 -0.529594 -1.194674
v 0.703723 -0.595728 -2.250215
v -0.197191 -0.714653 -2.647490
v 0.816127 1.066483 0.781815
v -0.325143 1.066485 1.307140
v -1.510700 1.373366 -0.541582
v -0.600096 0.937770 -2.230059
v 0.857615 0.937767 -1.559077
v 0.185247 1.456385 0.781813
v 0.598909 1.871373 -0.541582
v -0.858793 1.871377 0.129393
v -0.849093 1.435777 -1.144378
v 0.051809 1.435778 -1.559073
v -0.194947 -0.816761 1.031057
v -0.194947 -0.816761 1.031057
v -0.194947 -0.816761 1.031057
v -0.194947 -0.816761 1.031057
v -0.194947 -0.816761 1.031057
v -0.000000 -1.232207 0.268162
v -0.000000 -1.232207 0.268162
v -0.000000 -1.232207 0.268162
v -0.000000 -1.232207 0.268162
v 0.510387 -0.909869 0.720022
v 0.510387 -0.909869 0.720022
v 0.510387 -0.909869 0.720022
v 0.510387 -0.909869 0.720022
v 0.510387 -0.909869 0.720022
v 0.858629 0.057321 0.743890
v 0.858629 0.057321 0.743890
v 0.858629 0.057321 0.743890
v 0.858629 0.057321 0.743890
v 0.315443 -0.292585 1.422505
v 0.315443 -0.292585 1.422505
v 0.315443 -0.292585 1.422505
v 0.315443 -0.292585 1.422505
v 0.315443 -0.292585 1.422505
v -0.341366 0.215728 1.273060
v -0.341366 0.215728 1.273060
v -0.341366 0.215728 1.273060
v -0.341366 0.215728 1.273060
v 1.020777 -0.686994 0.104952
v 1.020777 -0.686994 0.104952
v 1.020777 -0.686994 0.104952
v 1.020777 -0.686994 0.104952
v 1.020777 -0.686994 0.104952
v 0.510387 -1.211169 -0.286487
v 0.510387 -1.211169 -0.286487
v 0.510387 -1.211169 -0.286487
v 0.510387 -1.211169 -0.286487
v 0.510387 -1.211169 -0.286487
v 0.911900 -1.075996 -1.464348
v 0.911900 -1.075996 -1.464348
v 0.911900 -1.075996 -1.464348
v 0.911900 -1.075996 -1.464348
v -0.630876 -1.060516 0.216766
v -0.630876 -1.060516 0.216766
v -0.630876 -1.060516 0.216766
v -0.630876 -1.060516 0.216766
v -0.630876 -1.060516 0.216766
v -0.783448 -0.688452 0.934698
v -0.783448 -0.688452 0.934698
v -0.783448 -0.688452 0.934698
v -0.783448 -0.688452 0.934698
v -0.783448 -0.688452 0.934698
v -1.030932 -0.841945 0.093384
v -1.030932 -0.841945 0.093384
v -1.030932 -0.841945 0.093384
v -1.030932 -0.841945 0.093384
v -0.194947 -1.304278 -0.597523
v -0.194947 -1.304278 -0.597523
v -0.194947 -1.304278 -0.597523
v -0.194947 -1.304278 -0.597523
v -0.194947 -1.304278 -0.597523
v -0.783448 -1.175971 -0.693887
v -0.783448 -1.175971 -0.693887
v -0.783448 -1.175971 -0.693887
v -0.783448 -1.175971 -0.693887
v -0.783448 -1.175971 -0.693887
v -0.620817 -1.278326 -2.140241
v -0.620817 -1.278326 -2.140241
v -0.620817 -1.278326 -2.140241
v -0.620817 -1.278326 -2.140241
v 0.315443 -1.081407 -1.212600
v 0.315443 -1.081407 -1.212600
v 0.315443 -1.081407 -1.212600
v 0.315443 -1.081407 -1.212600
v 0.315443 -1.081407 -1.212600
v 1.250820 0.498217 -0.114773
v 1.250820 0.498217 -0.114773
v 1.250820 0.498217 -0.114773
v 1.250820 0.498217 -0.114773
v 1.250820 0.498217 -0.114773
v 1.260520 -0.284377 -1.210127
v 1.260520 -0.284377 -1.210127
v 1.260520 -0.284377 -1.210127
v 1.260520 -0.284377 -1.210127
v 1.260520 -0.284377 -1.210127
v 1.164019 0.962462 -0.954142
v 1.164019 0.962462 -0.954142
v 1.164019 0.962462 -0.954142
v 1.164019 0.962462 -0.954142
v -0.009700 0.802662 1.362389
v -0.009700 0.802662 1.362389
v -0.009700 0.802662 1.362389
v -0.009700 0.802662 1.362389
v -0.009700 0.802662 1.362389
v 0.695643 0.709554 1.051354
v 0.695643 0.709554 1.051354
v 0.695643 0.709554 1.051354
v 0.695643 0.709554 1.051354
v 0.695643 0.709554 1.051354
v 0.321966 0.972263 1.377924
v 0.321966 0.972263 1.377924
v 0.321966 0.972263 1.377924
v 0.321966 0.972263 1.377924
v -1.622221 0.252999 -0.099320
v -1.622221 0.252999 -0.099320
v -1.622221 0.252999 -0.099320
v -1.622221 0.252999 -0.099320
v -1.622221 0.252999 -0.099320
v -0.715043 0.709554 1.051354
v -0.715043 0.709554 1.051354
v -0.715043 0.709554 1.051354
v -0.715043 0.709554 1.051354
v -0.715043 0.709554 1.051354
v -0.878029 0.972263 0.825554
v -0.878029 0.972263 0.825554
v -0.878029 0.972263 0.825554
v -0.878029 0.972263 0.825554
v -1.055725 -0.840945 -2.234761
v -1.055725 -0.840945 -2.234761
v -1.055725 -0.840945 -2.234761
v -1.055725 -0.840945 -2.234761
v -1.055725 -0.840945 -2.234761
v -1.612521 -0.529594 -1.194674
v -1.612521 -0.529594 -1.194674
v -1.612521 -0.529594 -1.194674
v -1.612521 -0.529594 -1.194674
v -1.612521 -0.529594 -1.194674
v -1.306282 0.237350 -1.857500
v -1.306282 0.237350 -1.857500
v -1.306282 0.237350 -1.857500
v -1.306282 0.237350 -1.857500
v 0.703723 -0.595728 -2.250215
v 0.703723 -0.595728 -2.250215
v 0.703723 -0.595728 -2.250215
v 0.703723 -0.595728 -2.250215
v 0.703723 -0.595728 -2.250215
v -0.197191 -0.714653 -2.647490
v -0.197191 -0.714653 -2.647490
v -0.197191 -0.714653 -2.647490
v -0.197191 -0.714653 -2.647490
v -0.197191 -0.714653 -2.647490
v 0.226436 0.817423 -2.320469
v 0.226436 0.817423 -2.320469
v 0.226436 0.817423 -2.320469
v 0.226436 0.817423 -2.320469
v 0.816127 1.066483 0.781815
v 0.816127 1.066483 0.781815
v 0.816127 1.066483 0.781815
v 0.816127 1.066483 0.781815
v 0.816127 1.066483 0.781815
v -0.325143 1.066485 1.307140
v -0.325143 1.066485 1.307140
v -0.325143 1.066485 1.307140
v -0.325143 1.066485 1.307140
v -0.325143 1.066485 1.307140
v -1.510700 1.373366 -0.541582
v -1.510700 1.373366 -0.541582
v -1.510700 1.373366 -0.541582
v -1.510700 1.373366 -0.541582
v -1.510700 1.373366 -0.541582
v -0.600096 0.937770 -2.230059
v -0.600096 0.937770 -2.230059
v -0.600096 0.937770 -2.230059
v -0.600096 0.937770 -2.230059
v -0.600096 0.937770 -2.230059
v 0.857615 0.937767 -1.559077
v 0.857615 0.937767 -1.559077
v 0.857615 0.937767 -1.559077
v 0.857615 0.937767 -1.559077
v 0.857615 0.937767 -1.559077
v 0.185247 1.456385 0.781813
v 0.185247 1.456385 0.781813
v 0.185247 1.456385 0.781813
v 0.185247 1.456385 0.781813
v 0.185247 1.456385 0.781813
v 0.598909 1.871373 -0.541582
v 0.598909 1.871373 -0.541582
v 0.598909 1.871373 -0.541582
v 0.598909 1.871373 -0.541582
v 0.598909 1.871373 -0.541582
v -0.206891 2.100283 -0.541582
v -0.206891 2.100283 -0.541582
v -0.206891 2.100283 -0.541582
v -0.206891 2.100283 -0.541582
v -0.858793 1.871377 0.129393
v -0.858793 1.871377 0.129393
v -0.858793 1.871377 0.129393
v -0.858793 1.871377 0.129393
v -0.858793 1.871377 0.129393
v -0.849093 1.435777 -1.144378
v -0.849093 1.435777 -1.144378
v -0.849093 1.435777 -1.144378
v -0.849093 1.435777 -1.144378
v -0.849093 1.435777 -1.144378
v 0.051809 1.435778 -1.559073
v 0.051809 1.435778 -1.559073
v 0.051809 1.435778 -1.559073
v 0.051809 1.435778 -1.559073
v 0.051809 1.435778 -1.559073
vt 0.196129 0.630254
vt 0.136982 0.556962
vt 0.249907 0.564145
vt 0.583271 0.759290
vt 0.619304 0.923232
vt 0.518351 0.890719
vt 0.196129 0.630254
vt 0.249907 0.564145
vt 0.284776 0.675532
vt 0.196129 0.630254
vt 0.284776 0.675532
vt 0.193399 0.737187
vt 0.196129 0.630254
vt 0.193399 0.737187
vt 0.102059 0.663906
vt 0.583271 0.759290
vt 0.518351 0.890719
vt 0.468757 0.691197
vt 0.480549 0.250213
vt 0.376309 0.316739
vt 0.450536 0.142301
vt 0.609022 0.459425
vt 0.530740 0.417133
vt 0.724207 0.293466
vt 0.199135 0.935387
vt 0.274497 0.784213
vt 0.256536 0.979775
vt 0.000648 0.776145
vt 0.096148 0.781764
vt 0.000000 0.886176
vt 0.583271 0.759290
vt 0.468757 0.691197
vt 0.619303 0.645871
vt 0.480549 0.250213
vt 0.450536 0.142301
vt 0.554014 0.179745
vt 0.609022 0.459425
vt 0.724207 0.293466
vt 0.769055 0.437663
vt 0.063236 0.000000
vt 0.110921 0.024958
vt 0.000000 0.107905
vt 0.728204 0.469695
vt 0.823099 0.504133
vt 0.707033 0.607735
vt 0.917179 0.309554
vt 0.819187 0.288061
vt 0.897552 0.200791
vt 0.595368 0.142653
vt 0.500124 0.106850
vt 0.661137 0.000000
vt 0.201147 0.167783
vt 0.366225 0.341084
vt 0.256145 0.394415
vt 0.037349 0.372706
vt 0.126819 0.322062
vt 0.136904 0.462554
vt 0.758665 0.813243
vt 0.831161 0.777407
vt 0.840545 0.970460
vt 0.840545 0.970460
vt 0.948472 0.848743
vt 0.945737 1.000000
vt 0.840545 0.970460
vt 0.831161 0.777407
vt 0.948472 0.848743
vt 0.831161 0.777407
vt 0.947298 0.716605
vt 0.948472 0.848743
vt 0.136904 0.462554
vt 0.256145 0.394415
vt 0.267010 0.556962
vt 0.136904 0.462554
vt 0.126819 0.322062
vt 0.256145 0.394415
vt 0.126819 0.322062
vt 0.201147 0.167783
vt 0.256145 0.394415
vt 0.256145 0.394415
vt 0.376309 0.481577
vt 0.267010 0.556962
vt 0.256145 0.394415
vt 0.366225 0.341084
vt 0.376309 0.481577
vt 0.769055 0.108292
vt 0.595368 0.142653
vt 0.661137 0.000000
vt 1.000000 0.030791
vt 0.897552 0.200791
vt 0.874319 0.000000
vt 1.000000 0.030791
vt 1.000000 0.247859
vt 0.897552 0.200791
vt 1.000000 0.247859
vt 0.917179 0.309554
vt 0.897552 0.200791
vt 0.897552 0.200791
vt 0.769055 0.082139
vt 0.874319 0.000000
vt 0.897552 0.200791
vt 0.819187 0.288061
vt 0.769055 0.082139
vt 0.581719 0.587331
vt 0.396937 0.618040
vt 0.474768 0.459425
vt 0.707033 0.607735
vt 0.831161 0.777407
vt 0.758665 0.813243
vt 0.707033 0.607735
vt 0.823099 0.504133
vt 0.831161 0.777407
vt 0.823099 0.504133
vt 0.947298 0.716605
vt 0.831161 0.777407
vt 0.000000 0.107905
vt 0.126819 0.322062
vt 0.037349 0.372706
vt 0.000000 0.107905
vt 0.110921 0.024958
vt 0.126819 0.322062
vt 0.110921 0.024958
vt 0.201147 0.167783
vt 0.126819 0.322062
vt 0.259420 0.043278
vt 0.366225 0.341084
vt 0.201147 0.167783
vt 0.259420 0.043278
vt 0.376309 0.177409
vt 0.366225 0.341084
vt 0.724207 0.293466
vt 0.595368 0.142653
vt 0.769055 0.108292
vt 0.554014 0.179745
vt 0.500124 0.106850
vt 0.595368 0.142653
vt 0.554014 0.179745
vt 0.450536 0.142301
vt 0.500124 0.106850
vt 0.450536 0.142301
vt 0.413476 0.105206
vt 0.500124 0.106850
vt 0.619303 0.645871
vt 0.581719 0.587331
vt 0.678479 0.598133
vt 0.619303 0.645871
vt 0.468757 0.691197
vt 0.581719 0.587331
vt 0.468757 0.691197
vt 0.396937 0.618040
vt 0.581719 0.587331
vt 0.823099 0.504133
vt 0.948472 0.459425
vt 0.947298 0.716605
vt 0.000000 0.886176
vt 0.096148 0.781764
vt 0.116669 0.979775
vt 0.096148 0.781764
vt 0.199135 0.935387
vt 0.116669 0.979775
vt 0.110921 0.024958
vt 0.259420 0.043278
vt 0.201147 0.167783
vt 0.256536 0.979775
vt 0.274497 0.784213
vt 0.373249 0.901022
vt 0.274497 0.784213
vt 0.337165 0.716694
vt 0.373249 0.901022
vt 0.724207 0.293466
vt 0.554014 0.179745
vt 0.595368 0.142653
vt 0.724207 0.293466
vt 0.530740 0.417133
vt 0.554014 0.179745
vt 0.530740 0.417133
vt 0.480549 0.250213
vt 0.554014 0.179745
vt 0.707033 0.626421
vt 0.619303 0.645871
vt 0.678479 0.598133
vt 0.707033 0.626421
vt 0.693828 0.812887
vt 0.619303 0.645871
vt 0.693828 0.812887
vt 0.583271 0.759290
vt 0.619303 0.645871
vt 0.468757 0.691197
vt 0.376309 0.832072
vt 0.396937 0.618040
vt 0.468757 0.691197
vt 0.518351 0.890719
vt 0.376309 0.832072
vt 0.518351 0.890719
vt 0.390207 0.967793
vt 0.376309 0.832072
vt 0.102059 0.663906
vt 0.096148 0.781764
vt 0.000648 0.776145
vt 0.102059 0.663906
vt 0.193399 0.737187
vt 0.096148 0.781764
vt 0.193399 0.737187
vt 0.199135 0.935387
vt 0.096148 0.781764
vt 0.193399 0.737187
vt 0.274497 0.784213
vt 0.199135 0.935387
vt 0.193399 0.737187
vt 0.284776 0.675532
vt 0.274497 0.784213
vt 0.284776 0.675532
vt 0.337165 0.716694
vt 0.274497 0.784213
vt 0.284776 0.675532
vt 0.331005 0.611171
vt 0.337165 0.716694
vt 0.284776 0.675532
vt 0.249907 0.564145
vt 0.331005 0.611171
vt 0.448772 0.422389
vt 0.480549 0.250213
vt 0.530740 0.417133
vt 0.039731 0.601538
vt 0.102059 0.663906
vt 0.000648 0.776145
vt 0.039731 0.601538
vt 0.136982 0.556962
vt 0.102059 0.663906
vt 0.136982 0.556962
vt 0.196129 0.630254
vt 0.102059 0.663906
vt 0.448772 0.422389
vt 0.376309 0.316739
vt 0.480549 0.250213
vt 0.707033 0.903782
vt 0.619304 0.923232
vt 0.693828 0.812887
vt 0.619304 0.923232
vt 0.583271 0.759290
vt 0.693828 0.812887
vn 0.1050 -0.8618 0.4962
vn 0.7850 -0.2961 0.5441
vn -0.2706 -0.8728 0.4061
vn -0.2706 -0.9524 0.1402
vn 0.1050 -0.9927 0.0590
vn 0.9243 -0.1118 0.3648
vn -0.2336 -0.0160 0.9722
vn -0.8548 -0.4044 0.3252
vn -0.7056 -0.7079 -0.0292
vn -0.1923 -0.8592 -0.4741
vn 0.9044 0.0251 0.4260
vn -0.4121 0.0949 0.9062
vn -0.8627 -0.4150 0.2889
vn -0.3177 -0.4911 -0.8111
vn 0.8813 -0.2618 -0.3934
vn 0.4567 0.7389 0.4954
vn -0.6188 0.4892 0.6147
vn -0.5829 0.5681 -0.5810
vn 0.0454 0.7805 -0.6235
vn 0.6990 0.6065 -0.3788
vn 0.2385 0.8397 -0.4877
vn 0.4414 0.7142 -0.5431
vn 0.4567 0.7389 -0.4954
vn -0.2640 0.7754 -0.5735
vn -0.2055 0.8708 -0.4466
vn -0.7419 0.5285 -0.4126
vn -0.5563 0.7850 -0.2727
vn -0.3604 0.8817 -0.3043
vn -0.7882 0.3872 0.4783
vn 0.1039 0.9061 0.4101
vn -0.0337 0.8179 0.5743
vn 0.0454 0.7805 0.6235
vn 0.2548 0.8971 0.3609
vn 0.4828 0.7812 0.3959
vn 0.8685 0.4738 0.1456
vn 0.8778 0.1606 -0.4512
vn 0.8551 0.1393 -0.4994
vn 0.7346 0.2161 -0.6431
vn -0.0731 0.2275 -0.9710
vn -0.4441 0.1161 -0.8884
vn -0.5729 0.1489 -0.8060
vn -0.9513 0.1444 -0.2724
vn -0.9953 0.0746 -0.0621
vn -0.8417 0.2687 0.4683
vn -0.6624 0.2077 0.7198
vn -0.3636 -0.2466 0.8983
vn -0.0946 0.0943 0.9910
vn 0.7287 0.2387 0.6418
vn 0.9040 0.0175 0.4272
vn 0.8857 0.4389 0.1512
vn 0.3923 0.0870 -0.9157
vn 0.2637 -0.9077 -0.3262
vn 0.5383 -0.7501 -0.3840
vn -0.8862 -0.0446 -0.4611
vn -0.5858 -0.8072 -0.0720
vn -0.6524 -0.7494 0.1129
vn -0.7913 0.0338 0.6105
vn -0.7826 -0.0136 0.6224
vn -0.5508 -0.0426 0.8335
vn 0.2621 -0.5830 0.7690
vn 0.4164 0.1726 0.8926
vn 0.7982 -0.0818 0.5967
vn 0.9946 0.0881 -0.0541
vn 0.9778 -0.1662 0.1274
vn 0.9098 -0.4133 0.0393
vn -0.0455 -0.9906 -0.1292
vn 0.2055 -0.9623 -0.1781
vn 0.2968 -0.9499 -0.0979
vn -0.2197 -0.9745 0.0443
vn -0.2353 -0.9585 0.1609
vn -0.5155 -0.8350 0.1922
vn -0.5270 -0.7951 0.3001
vn -0.2573 -0.8792 0.4010
vn -0.2095 -0.2512 0.9450
vn 0.6559 -0.7420 0.1384
vn 0.6070 -0.7613 0.2279
vn 0.3313 -0.9039 0.2706
vn -0.4028 -0.2626 0.8768
vn 0.2055 -0.7061 0.6775
vn 0.8140 -0.3053 0.4941
usemtl Rock
s 1
f 48/1/1 53/2/1 43/3/1
f 57/4/2 52/5/2 70/6/2
f 49/7/3 45/8/3 84/9/3
f 50/10/4 86/11/4 98/12/4
f 51/13/5 100/14/5 76/15/5
f 58/16/6 72/17/6 117/18/6
f 66/19/7 61/20/7 131/21/7
f 94/22/8 89/23/8 145/24/8
f 108/25/9 103/26/9 159/27/9
f 81/28/10 112/29/10 173/30/10
f 60/31/11 119/32/11 137/33/11
f 69/34/12 133/35/12 151/36/12
f 97/37/13 147/38/13 165/39/13
f 111/40/14 161/41/14 179/42/14
f 83/43/15 175/44/15 123/45/15
f 142/46/16 187/47/16 212/48/16
f 156/49/17 192/50/17 226/51/17
f 170/52/18 197/53/18 231/54/18
f 184/55/19 202/56/19 236/57/19
f 128/58/20 207/59/20 218/60/20
f 217/61/21 237/62/21 222/63/21
f 39/64/22 209/65/22 238/66/22
f 208/67/23 186/68/23 240/69/23
f 239/70/24 232/71/24 225/72/24
f 42/73/25 204/74/25 233/75/25
f 203/76/26 172/77/26 235/78/26
f 234/79/27 227/80/27 224/81/27
f 41/82/28 199/83/28 228/84/28
f 198/85/29 158/86/29 230/87/29
f 229/88/30 213/89/30 223/90/30
f 40/91/31 194/92/31 214/93/31
f 193/94/32 144/95/32 216/96/32
f 215/97/33 219/98/33 12/99/33
f 38/100/34 189/101/34 220/102/34
f 188/103/35 130/104/35 221/105/35
f 122/106/36 210/107/36 127/108/36
f 24/109/37 176/110/37 211/111/37
f 174/112/38 185/113/38 37/114/38
f 178/115/39 205/116/39 183/117/39
f 32/118/40 162/119/40 206/120/40
f 160/121/41 171/122/41 36/123/41
f 164/124/42 200/125/42 169/126/42
f 30/127/43 148/128/43 201/129/43
f 146/130/44 157/131/44 35/132/44
f 150/133/45 195/134/45 155/135/45
f 28/136/46 134/137/46 196/138/46
f 132/139/47 143/140/47 34/141/47
f 136/142/48 190/143/48 141/144/48
f 26/145/49 120/146/49 191/147/49
f 118/148/50 129/149/50 33/150/50
f 177/151/51 180/152/51 10/153/51
f 31/154/52 114/155/52 181/156/52
f 113/157/53 110/158/53 182/159/53
f 163/160/54 166/161/54 9/162/54
f 29/163/55 105/164/55 167/165/55
f 104/166/56 96/167/56 168/168/56
f 149/169/57 152/170/57 8/171/57
f 27/172/58 91/173/58 153/174/58
f 90/175/59 68/176/59 154/177/59
f 135/178/60 138/179/60 7/180/60
f 25/181/61 63/182/61 139/183/61
f 62/184/62 59/185/62 140/186/62
f 121/187/63 124/188/63 11/189/63
f 23/190/64 73/191/64 125/192/64
f 71/193/65 82/194/65 126/195/65
f 75/196/66 115/197/66 80/198/66
f 17/199/67 101/200/67 116/201/67
f 99/202/68 109/203/68 22/204/68
f 102/205/69 106/206/69 5/207/69
f 20/208/70 87/209/70 107/210/70
f 85/211/71 95/212/71 21/213/71
f 88/214/72 92/215/72 4/216/72
f 18/217/73 46/218/73 93/219/73
f 44/220/74 67/221/74 19/222/74
f 74/223/75 77/224/75 6/225/75
f 16/226/76 54/227/76 78/228/76
f 56/229/77 1/230/77 79/231/77
f 47/232/78 64/233/78 3/234/78
f 13/235/79 55/236/79 65/237/79
f 14/238/80 2/239/80 15/240/80
